<svg height="512pt" viewBox="0 -24 512 512" width="512pt" xmlns="http://www.w3.org/2000/svg"><path d="m466.269531 0h-420.539062c-25.214844 0-45.730469 20.515625-45.730469 45.730469v372.464843c0 25.214844 20.515625 45.730469 45.730469 45.730469h420.539062c25.214844 0 45.730469-20.515625 45.730469-45.730469v-124.109374c0-5.523438-4.476562-10-10-10s-10 4.476562-10 10v124.109374c0 14.1875-11.542969 25.730469-25.730469 25.730469h-420.539062c-14.1875 0-25.730469-11.542969-25.730469-25.730469v-312.574218h472v98.015625c0 5.523437 4.476562 10 10 10s10-4.476563 10-10v-157.90625c0-25.214844-20.515625-45.730469-45.730469-45.730469zm-446.269531 85.621094v-39.890625c0-14.1875 11.542969-25.730469 25.730469-25.730469h420.539062c14.1875 0 25.730469 11.542969 25.730469 25.730469v39.890625zm0 0"/><path d="m115.980469 381.628906h121.933593c5.523438 0 10-4.480468 10-10v-60.511718h37.019532c5.519531 0 10-4.476563 10-10v-44.882813c0-18.015625-7.015625-34.949219-19.753906-47.6875-12.738282-12.738281-29.671876-19.753906-47.6875-19.753906h-15.316407c-2.796875 0-5.464843 1.171875-7.359375 3.230469-1.890625 2.058593-2.835937 4.8125-2.605468 7.601562.058593.722656.089843 1.445312.089843 2.15625 0 13.980469-11.375 25.351562-25.351562 25.351562-13.980469 0-25.355469-11.371093-25.355469-25.351562 0-.714844.03125-1.4375.089844-2.152344.234375-2.785156-.710938-5.542968-2.605469-7.605468-1.890625-2.058594-4.5625-3.226563-7.359375-3.226563h-15.3125c-18.015625 0-34.953125 7.015625-47.6875 19.75-12.738281 12.738281-19.753906 29.675781-19.753906 47.6875v44.882813c0 5.523437 4.476562 10 10 10h37.015625v60.511718c0 5.523438 4.476562 10 10 10zm-37.015625-90.511718v-34.882813c0-12.671875 4.933594-24.585937 13.894531-33.546875s20.875-13.894531 33.546875-13.894531h5.730469c3.378906 21.691406 22.1875 38.339843 44.8125 38.339843 22.621093 0 41.429687-16.648437 44.8125-38.339843h5.730469c12.671874 0 24.582031 4.933593 33.542968 13.894531 8.960938 8.960938 13.898438 20.875 13.898438 33.546875v34.882813h-27.019532v-11.210938c0-5.519531-4.476562-10-10-10-5.519531 0-10 4.480469-10 10v81.722656h-101.933593v-81.722656c0-5.519531-4.476563-10-10-10-5.523438 0-10 4.480469-10 10v11.210938zm0 0"/><path d="m406.664062 381.628906c-2.652343 0-5.195312-1.054687-7.070312-2.929687l-32.570312-32.570313-16.429688 16.433594c-2.644531 2.640625-6.535156 3.589844-10.097656 2.457031-3.558594-1.128906-6.195313-4.148437-6.832032-7.828125l-17.390624-100.769531c-.550782-3.203125.484374-6.472656 2.785156-8.769531 2.296875-2.296875 5.570312-3.335938 8.769531-2.785156l100.769531 17.390624c3.679688.636719 6.699219 3.269532 7.832032 6.832032 1.128906 3.558594.179687 7.453125-2.460938 10.09375l-16.433594 16.433594 32.570313 32.566406c3.90625 3.90625 3.90625 10.238281 0 14.144531l-36.371094 36.371094c-1.875 1.875-4.417969 2.929687-7.070313 2.929687zm-39.640624-59.640625c2.558593 0 5.117187.976563 7.070312 2.925781l32.566406 32.570313 22.230469-22.230469-32.570313-32.566406c-3.902343-3.90625-3.902343-10.238281 0-14.144531l9.859376-9.855469-67.789063-11.699219 11.699219 67.785157 9.859375-9.855469c1.953125-1.953125 4.515625-2.929688 7.074219-2.929688zm0 0"/><path d="m255.476562 62.929688h-72.5625c-5.523437 0-10-4.480469-10-10 0-5.523438 4.476563-10 10-10h72.5625c5.523438 0 10 4.476562 10 10 0 5.519531-4.476562 10-10 10zm0 0"/><path d="m97.808594 62.921875c-4.125 0-7.894532-2.617187-9.347656-6.472656-1.484376-3.925781-.285157-8.539063 2.960937-11.214844 3.097656-2.558594 7.558594-3.011719 11.101563-1.125 3.738281 1.992187 5.84375 6.265625 5.15625 10.449219-.789063 4.769531-5.039063 8.363281-9.871094 8.363281zm0 0"/><path d="m134.71875 62.921875c-4.191406 0-7.980469-2.691406-9.40625-6.625-1.398438-3.863281-.195312-8.34375 2.941406-10.996094 3.28125-2.777343 8.089844-3.121093 11.742188-.863281 3.511718 2.167969 5.320312 6.410156 4.523437 10.445312-.910156 4.621094-5.09375 8.039063-9.800781 8.039063zm0 0"/><path d="m60.910156 62.921875c-4.257812 0-8.074218-2.769531-9.464844-6.777344-1.382812-4 .019532-8.585937 3.378907-11.152343 3.230469-2.46875 7.730469-2.707032 11.222656-.636719 3.582031 2.125 5.488281 6.449219 4.664063 10.527343-.9375 4.621094-5.078126 8.039063-9.800782 8.039063zm0 0"/><path d="m502 258.683594c-4.671875 0-8.847656-3.398438-9.78125-7.976563-.726562-3.558593.644531-7.351562 3.410156-9.691406 6.550782-5.554687 16.941406-.1875 16.332032 8.347656-.371094 5.164063-4.765626 9.320313-9.960938 9.320313zm0 0"/></svg>