<svg width="512" height="512" xmlns="http://www.w3.org/2000/svg">
 <g>
  <title>background</title>
  <rect x="-1" y="-1" width="514" height="514" id="canvas_background" fill="none"/>
 </g>

 <g>
  <title>Layer 1</title>
  <path d="m143.35597,452.41798l225.28082,0c10.20494,0 18.4757,-9.12739 18.4757,-20.37151l0,-123.27152l68.39617,0c10.19772,0 18.47569,-9.11943 18.47569,-20.37151l0,-91.43307c0,-36.70055 -12.96185,-71.19684 -36.49672,-97.14664c-23.53486,-25.94981 -54.82086,-40.2417 -88.10598,-40.2417l-28.29813,0c-5.16742,0 -10.09668,2.38729 -13.59696,6.58096c-3.49306,4.19366 -5.23959,9.80379 -4.81378,15.48553c0.10825,1.47216 0.16599,2.94432 0.16599,4.39261c0,28.48032 -21.01611,51.64496 -46.83878,51.64496c-25.82989,0 -46.846,-23.16464 -46.846,-51.64496c0,-1.45625 0.05774,-2.92841 0.16599,-4.38465c0.43303,-5.67379 -1.3135,-11.29187 -4.81378,-15.49349c-3.49306,-4.19367 -8.42954,-6.573 -13.59696,-6.573l-28.29091,0c-33.28513,0 -64.57834,14.29189 -88.10599,40.23374c-23.53486,25.9498 -36.49672,60.45405 -36.49672,97.14664l0,91.43307c0,11.25208 8.27076,20.37151 18.4757,20.37151l68.38895,0l0,123.27152c0,11.25208 8.27076,20.37151 18.4757,20.37151l0,0zm-68.38895,-184.38605l0,-71.06156c0,-25.81453 9.11516,-50.08527 25.67112,-68.34006s38.56801,-28.30525 61.98019,-28.30525l10.58744,0c6.24276,44.18867 40.99295,78.10405 82.79422,78.10405c41.79405,0 76.54424,-33.91538 82.79422,-78.10405l10.58744,0c23.41217,0 45.41702,10.05047 61.97297,28.30525c16.55596,18.25479 25.67834,42.52553 25.67834,68.34006l0,71.06156l-49.92047,0l0,-22.83837c0,-11.24412 -8.27076,-20.37152 -18.4757,-20.37152c-10.19772,0 -18.4757,9.1274 -18.4757,20.37152l0,166.4814l-188.32942,0l0,-166.4814c0,-11.24412 -8.27077,-20.37152 -18.4757,-20.37152c-10.20494,0 -18.4757,9.1274 -18.4757,20.37152l0,22.83837l-49.91325,0l0,0zm0,0" id="svg_2" stroke="null" fill="#c5c5c5"/>
 </g>
</svg>